<svg width="173" height="44" viewBox="0 0 173 44" fill="none" xmlns="http://www.w3.org/2000/svg">
<path d="M139.66 9.24784C137.901 8.4486 135.787 9.09798 134.801 10.8063C133.752 12.6246 134.375 14.9457 136.193 15.9947C136.37 16.0979 136.556 16.1845 136.743 16.2544L145.884 20.0841C146.696 20.4271 147.829 19.841 148.485 18.7054C148.948 17.9029 149.054 17.0304 148.828 16.401C148.738 16.1512 148.601 15.9414 148.411 15.7882L148.365 15.7549L140.509 9.77733C140.432 9.71405 140.352 9.65411 140.269 9.5975C140.179 9.53422 140.086 9.47429 139.986 9.41768C139.88 9.3544 139.77 9.29779 139.656 9.24784M138.987 11.3192L146.87 16.3943C147.499 16.7873 147.749 17.5399 147.426 18.0993C147.096 18.6721 146.29 18.8253 145.627 18.4457C145.621 18.4457 145.614 18.439 145.607 18.4357L137.315 14.1731C137.295 14.1631 137.279 14.1531 137.259 14.1431C136.469 13.6869 136.196 12.6745 136.653 11.8853C137.109 11.0927 138.121 10.823 138.914 11.2792C138.93 11.2892 138.95 11.3025 138.967 11.3125H138.974C138.974 11.3125 138.98 11.3225 138.984 11.3225" fill="#E55D4F"/>
<path d="M135.873 27.6203C134.301 28.7426 133.808 30.9005 134.794 32.6088C135.843 34.4271 138.168 35.0465 139.983 33.9975C140.162 33.8943 140.329 33.7777 140.485 33.6512L148.371 27.6536C149.077 27.1208 149.134 25.8453 148.478 24.7098C148.015 23.9072 147.309 23.3777 146.653 23.2612C146.393 23.2145 146.143 23.2279 145.917 23.3178L145.864 23.3411L136.762 27.1541C136.669 27.1874 136.576 27.2273 136.486 27.2706C136.386 27.3173 136.286 27.3705 136.186 27.4238C136.08 27.4871 135.976 27.5537 135.876 27.627M137.335 29.2421L145.67 24.9529C146.326 24.6032 147.102 24.763 147.425 25.3225C147.755 25.8953 147.485 26.6712 146.826 27.0542C146.819 27.0575 146.813 27.0608 146.806 27.0642L138.967 32.1127C138.95 32.1227 138.93 32.136 138.91 32.146C138.121 32.6022 137.109 32.3325 136.652 31.5432C136.196 30.7506 136.466 29.7416 137.258 29.2854C137.275 29.2754 137.295 29.2654 137.315 29.2554H137.322C137.322 29.2554 137.328 29.2487 137.332 29.2454" fill="#3283C3"/>
<path d="M149.836 40.0748C150.023 41.9997 151.645 43.5015 153.616 43.5015C155.714 43.5015 157.412 41.8032 157.412 39.7019C157.412 39.4954 157.396 39.2923 157.362 39.0958L156.11 29.2685C156.004 28.3927 154.928 27.7034 153.616 27.7034C152.687 27.7034 151.878 28.0497 151.445 28.5592C151.275 28.759 151.165 28.9855 151.125 29.2252L151.118 29.2819L149.87 39.0725C149.853 39.169 149.84 39.2656 149.833 39.3655C149.823 39.4754 149.816 39.5886 149.816 39.7019C149.816 39.8284 149.823 39.9516 149.836 40.0715M151.964 39.6153L152.417 30.2509C152.441 29.5116 152.967 28.9189 153.616 28.9189C154.265 28.9189 154.815 29.5383 154.815 30.3042V30.3275L155.268 39.6386C155.268 39.6619 155.268 39.6819 155.268 39.7019C155.268 40.6143 154.529 41.3536 153.616 41.3536C152.704 41.3536 151.961 40.6143 151.961 39.7019C151.961 39.6819 151.961 39.6586 151.961 39.6386V39.6319V39.6186" fill="#77439A"/>
<path d="M167.61 34.2105C169.368 35.0098 171.479 34.3604 172.468 32.652C173.517 30.8338 172.895 28.5127 171.08 27.4637C170.9 27.3605 170.717 27.2739 170.527 27.2006L161.389 23.3709C160.576 23.0279 159.444 23.614 158.788 24.7496C158.325 25.5522 158.219 26.4247 158.445 27.0574C158.535 27.3038 158.675 27.5136 158.861 27.6668L158.908 27.7034L166.761 33.6777C166.837 33.741 166.917 33.8009 167 33.8575C167.094 33.9208 167.187 33.9841 167.283 34.0407C167.393 34.104 167.5 34.1606 167.613 34.2105M168.282 32.1392L160.4 27.0641C159.771 26.6711 159.521 25.9218 159.844 25.359C160.173 24.7863 160.979 24.6297 161.642 25.016C161.649 25.016 161.655 25.0227 161.662 25.026L169.951 29.2886C169.971 29.3019 169.991 29.3119 170.007 29.3186C170.797 29.7781 171.07 30.7872 170.613 31.5797C170.157 32.369 169.145 32.642 168.356 32.1858C168.336 32.1758 168.319 32.1625 168.302 32.1525L168.296 32.1492C168.292 32.1492 168.289 32.1459 168.286 32.1425" fill="#E55D4F"/>
<path d="M171.412 15.8883C172.984 14.7627 173.477 12.6081 172.491 10.8997C171.442 9.08479 169.118 8.46206 167.303 9.51105C167.126 9.61429 166.957 9.73083 166.8 9.85738L158.914 15.8583C158.212 16.3911 158.152 17.6666 158.808 18.8021C159.274 19.6047 159.977 20.1342 160.636 20.2541C160.896 20.3007 161.145 20.284 161.372 20.1975L161.425 20.1741L170.53 16.3611C170.623 16.3245 170.713 16.2879 170.803 16.2446C170.903 16.198 171.006 16.1447 171.103 16.0914C171.213 16.0281 171.316 15.9615 171.416 15.8916M169.957 14.2765L161.622 18.5657C160.969 18.9154 160.193 18.7555 159.87 18.196C159.537 17.6233 159.807 16.8473 160.469 16.4644C160.476 16.4644 160.483 16.4577 160.489 16.4544L168.325 11.4059C168.325 11.4059 168.362 11.3859 168.379 11.3726C169.171 10.9164 170.18 11.1861 170.636 11.9787C171.096 12.7713 170.823 13.7803 170.03 14.2365C170.014 14.2465 169.994 14.2565 169.974 14.2665H169.967C169.967 14.2665 169.96 14.2765 169.957 14.2765Z" fill="#3283C3"/>
<path d="M157.446 3.43004C157.259 1.50522 155.638 0 153.666 0C151.568 0 149.87 1.69836 149.87 3.79968C149.87 4.00615 149.887 4.20929 149.92 4.4091L151.172 14.2397C151.282 15.1155 152.354 15.8048 153.666 15.8048C154.592 15.8048 155.405 15.4618 155.834 14.949C156.004 14.7492 156.117 14.5227 156.154 14.283L156.16 14.2263L157.409 4.43574C157.426 4.33583 157.439 4.23926 157.449 4.13936C157.459 4.02946 157.463 3.91624 157.463 3.80301C157.463 3.6798 157.456 3.55326 157.446 3.43337M155.315 3.8896L154.862 13.2539C154.838 13.9966 154.309 14.5893 153.663 14.5893C153.017 14.5893 152.464 13.9699 152.464 13.204V13.1873L152.008 3.86962C152.008 3.84964 152.008 3.82633 152.008 3.80634C152.008 2.89389 152.747 2.1546 153.66 2.1546C154.572 2.1546 155.311 2.89389 155.311 3.80634C155.311 3.82966 155.311 3.84964 155.311 3.86962V3.87961C155.311 3.87961 155.311 3.88626 155.311 3.89292" fill="#77439A"/>
<path d="M1.97477 12.1587H5.78445L9.65074 26.7747L13.4038 12.1587H19.2449V31.3469H15.5484V15.8551L11.6255 31.3469H7.61603L3.69312 15.8551V31.3469H0V14.2167C0 13.1144 0.875826 12.1587 1.97477 12.1587Z" fill="#3283C3"/>
<path d="M23.1145 14.2162C23.1145 12.8609 23.7639 12.1582 25.0893 12.1582H27.0374V31.3465H23.1145V14.2162Z" fill="#3283C3"/>
<path d="M43.3952 22.1488C44.2144 22.4285 44.8338 22.8814 45.2301 23.4742C45.5698 24.1235 45.7396 25.0826 45.8229 26.3248L45.9927 30.0778C46.0193 30.6706 46.2458 31.0935 46.6121 31.3466H42.2962C42.0964 30.9803 42.0132 30.584 41.9832 30.191C41.9 29.908 41.8433 28.809 41.8134 26.9442C41.6735 24.6297 41.2473 23.8971 38.9361 23.8971H34.7601V31.3466H30.8406V14.2164C30.8406 13.1174 31.7131 12.155 32.8153 12.155H40.095C44.0745 12.155 46.2758 13.6802 46.2758 17.6298C46.2758 20.0574 45.2334 21.6359 43.3985 22.1454M39.6188 15.4852H34.7635V20.537H39.3924C41.2539 20.537 42.2996 19.861 42.2996 17.9994C42.2996 16.2511 41.3671 15.4852 39.6188 15.4852Z" fill="#3283C3"/>
<path d="M60.7749 12.1582L67.6616 31.3465H63.5122L62.2435 27.4236H54.8206L53.5518 31.3465H49.3458L55.7497 13.427C56.0327 12.5811 56.6521 12.1582 57.6112 12.1582H60.7715H60.7749ZM55.8629 24.18H61.1378L58.4871 16.0245L55.8629 24.18Z" fill="#3283C3"/>
<path d="M92.608 12.1582L87.1632 31.3465H83.4102L80.4463 16.6439L77.4559 31.3465H73.6762L68.2014 12.1582H72.2942L75.541 25.6752L78.3617 12.1582H82.5377L85.3017 25.6752L88.2089 13.6534C88.5486 12.6677 89.1946 12.1582 90.1837 12.1582H92.608Z" fill="#3283C3"/>
<path d="M104.25 12.1582L111.137 31.3465H106.988L105.719 27.4236H98.2959L97.0238 31.3465H92.8212L99.2283 13.427C99.5081 12.5811 100.131 12.1582 101.09 12.1582H104.25ZM99.3382 24.18H104.617L101.962 16.0245L99.3382 24.18Z" fill="#3283C3"/>
<path d="M117.464 31.3465V24.18L110.52 12.1582H115.319L119.465 20.4269L122.712 13.3171C123.078 12.5545 123.671 12.1615 124.517 12.1615H127.734L121.44 24.1833V31.3498H117.46L117.464 31.3465Z" fill="#3283C3"/>
<path d="M3.04397 40.3647C2.89078 40.438 2.53113 40.5279 2.07157 40.5279C0.752834 40.5279 0.0734863 39.702 0.0734863 38.613C0.0734863 37.3143 1.00259 36.595 2.15482 36.595C2.60106 36.595 2.94073 36.6816 3.09392 36.7648L2.91409 37.4408C2.74426 37.3676 2.50116 37.301 2.19145 37.301C1.51211 37.301 0.979284 37.7139 0.979284 38.5664C0.979284 39.329 1.43218 39.8119 2.19478 39.8119C2.4612 39.8119 2.74426 39.7586 2.91742 39.6853L3.04397 40.3647Z" fill="#77439A"/>
<path d="M7.34961 36.7114C7.62601 36.6615 8.03229 36.6282 8.49851 36.6282C9.06463 36.6282 9.46092 36.7114 9.73066 36.9312C9.96377 37.111 10.087 37.3775 10.087 37.7271C10.087 38.2067 9.74065 38.5397 9.41429 38.6596V38.6762C9.68071 38.7828 9.82723 39.0325 9.92381 39.3822C10.0437 39.8184 10.1569 40.3146 10.2302 40.4645H9.34769C9.29108 40.3579 9.19451 40.0449 9.08794 39.5753C8.98138 39.0958 8.8182 38.9726 8.46188 38.9659H8.20878V40.4645H7.35627V36.7114H7.34961ZM8.20212 38.3465H8.5418C8.97139 38.3465 9.22448 38.1334 9.22448 37.8004C9.22448 37.4674 8.98804 37.2742 8.59175 37.2742C8.38195 37.2742 8.26207 37.2875 8.20212 37.3009V38.3465Z" fill="#77439A"/>
<path d="M16.704 38.8563H15.302V39.7587H16.8672V40.468H14.4429V36.655H16.7873V37.3644H15.302V38.1536H16.704V38.8563Z" fill="#77439A"/>
<path d="M22.0723 39.489L21.8059 40.4647H20.9135L22.079 36.655H23.2046L24.3901 40.4647H23.461L23.168 39.489H22.069H22.0723ZM23.0381 38.8429L22.8016 38.0337C22.7417 37.8073 22.6718 37.5209 22.6152 37.2978H22.5985C22.5486 37.5242 22.4853 37.8139 22.4287 38.0337L22.1956 38.8429H23.0381Z" fill="#77439A"/>
<path d="M28.8653 37.3777H27.8363V36.655H30.7635V37.3777H29.7245V40.468H28.8653V37.3777Z" fill="#77439A"/>
<path d="M35.8223 36.655H34.9631V40.4647H35.8223V36.655Z" fill="#77439A"/>
<path d="M41.2007 40.4679L39.9785 36.6582H40.9209L41.3838 38.27C41.5137 38.7295 41.6336 39.1591 41.7235 39.632H41.7402C41.8367 39.1725 41.9533 38.7229 42.0832 38.2866L42.5694 36.6582H43.4851L42.1997 40.4679H41.194H41.2007Z" fill="#77439A"/>
<path d="M49.899 38.8563H48.497V39.7587H50.0622V40.468H47.6378V36.655H49.9822V37.3644H48.497V38.1536H49.899V38.8563Z" fill="#77439A"/>
<path d="M59.7823 37.3777H58.7533V36.655H61.6805V37.3777H60.6415V40.468H59.7823V37.3777Z" fill="#77439A"/>
<path d="M68.1413 38.8563H66.7393V39.7587H68.3045V40.468H65.8801V36.655H68.2245V37.3644H66.7393V38.1536H68.1413V38.8563Z" fill="#77439A"/>
<path d="M75.4208 40.3647C75.2676 40.438 74.9046 40.5279 74.4484 40.5279C73.1297 40.5279 72.4503 39.702 72.4503 38.613C72.4503 37.3143 73.3794 36.595 74.5317 36.595C74.9779 36.595 75.3176 36.6816 75.4708 36.7648L75.2909 37.4408C75.1211 37.3676 74.878 37.301 74.5683 37.301C73.8923 37.301 73.3594 37.7139 73.3594 38.5664C73.3594 39.329 73.8123 39.8119 74.5749 39.8119C74.8414 39.8119 75.1244 39.7586 75.2976 39.6853L75.4208 40.3647Z" fill="#77439A"/>
<path d="M80.5894 36.655V38.127H82.0114V36.655H82.8705V40.468H82.0114V38.8796H80.5894V40.468H79.7302V36.655H80.5894Z" fill="#77439A"/>
<path d="M87.3562 40.468V36.6584H88.3619L89.1545 38.0537C89.3809 38.4566 89.6007 38.9295 89.7772 39.3591H89.7872C89.7372 38.8562 89.7173 38.3401 89.7173 37.764V36.655H90.5098V40.4647H89.604L88.7915 38.9961C88.565 38.5832 88.312 38.097 88.1288 37.6507H88.1088C88.1354 38.1603 88.1488 38.6964 88.1488 39.3191V40.468H87.3562Z" fill="#77439A"/>
<path d="M96.6072 40.5279C95.4816 40.5279 94.8156 39.6753 94.8156 38.5897C94.8156 37.4475 95.5515 36.595 96.6704 36.595C97.7894 36.595 98.4787 37.4708 98.4787 38.5231C98.4787 39.7786 97.7261 40.5312 96.6138 40.5312H96.6072V40.5279ZM96.6471 39.8419C97.2299 39.8419 97.5629 39.2924 97.5629 38.5464C97.5629 37.8604 97.2399 37.2743 96.6471 37.2743C96.0544 37.2743 95.718 37.8504 95.718 38.5631C95.718 39.2757 96.0644 39.8419 96.6405 39.8419H96.6471Z" fill="#77439A"/>
<path d="M102.785 36.655H103.644V39.7421H105.162V40.468H102.785V36.655Z" fill="#77439A"/>
<path d="M110.807 40.5279C109.682 40.5279 109.012 39.6753 109.012 38.5897C109.012 37.4475 109.748 36.595 110.867 36.595C111.986 36.595 112.675 37.4708 112.675 38.5231C112.675 39.7786 111.923 40.5312 110.81 40.5312H110.807V40.5279ZM110.847 39.8419C111.43 39.8419 111.763 39.2924 111.763 38.5464C111.763 37.8604 111.44 37.2743 110.847 37.2743C110.254 37.2743 109.918 37.8504 109.918 38.5631C109.918 39.2757 110.264 39.8419 110.84 39.8419H110.844H110.847Z" fill="#77439A"/>
<path d="M120.161 40.2914C119.895 40.3813 119.392 40.5045 118.889 40.5045C118.193 40.5045 117.691 40.328 117.341 39.995C116.995 39.662 116.801 39.1625 116.801 38.603C116.808 37.3375 117.731 36.6116 118.979 36.6116C119.472 36.6116 119.852 36.7081 120.038 36.7914L119.858 37.4874C119.649 37.3908 119.396 37.3242 118.976 37.3242C118.257 37.3242 117.707 37.7338 117.707 38.5564C117.707 39.3789 118.207 39.8052 118.913 39.8052C119.106 39.8052 119.262 39.7819 119.329 39.7552V38.9527H118.743V38.28H120.161V40.288V40.2914Z" fill="#77439A"/>
<path d="M125.449 40.468V38.9062L124.247 36.655H125.236L125.623 37.5708C125.739 37.8472 125.826 38.0504 125.916 38.3001H125.926C126.009 38.0637 126.099 37.8406 126.212 37.5708L126.598 36.655H127.564L126.309 38.8762V40.4647H125.449V40.468Z" fill="#77439A"/>
</svg>
